<mxfile host="app.diagrams.net" modified="2023-01-13T08:31:34.867Z" agent="5.0 (Windows NT 10.0; Win64; x64) AppleWebKit/537.36 (KHTML, like Gecko) Chrome/108.0.0.0 Safari/537.36" etag="O6hiAsvkB1wzgFqQ6pHi" version="20.8.4" type="github">
  <diagram id="C5RBs43oDa-KdzZeNtuy" name="Page-1">
    <mxGraphModel dx="1651" dy="850" grid="1" gridSize="10" guides="1" tooltips="1" connect="1" arrows="1" fold="1" page="1" pageScale="1" pageWidth="827" pageHeight="1169" math="0" shadow="0">
      <root>
        <mxCell id="WIyWlLk6GJQsqaUBKTNV-0" />
        <mxCell id="WIyWlLk6GJQsqaUBKTNV-1" parent="WIyWlLk6GJQsqaUBKTNV-0" />
        <mxCell id="2iyoucYUnTLYOsf95gTa-7" value="" style="rounded=1;whiteSpace=wrap;html=1;" vertex="1" parent="WIyWlLk6GJQsqaUBKTNV-1">
          <mxGeometry x="130" y="610" width="460" height="190" as="geometry" />
        </mxCell>
        <mxCell id="2iyoucYUnTLYOsf95gTa-0" value="ConfigManager" style="rounded=1;whiteSpace=wrap;html=1;" vertex="1" parent="WIyWlLk6GJQsqaUBKTNV-1">
          <mxGeometry x="210" y="680" width="110" height="50" as="geometry" />
        </mxCell>
        <mxCell id="2iyoucYUnTLYOsf95gTa-1" value="ExcelManager" style="rounded=1;whiteSpace=wrap;html=1;" vertex="1" parent="WIyWlLk6GJQsqaUBKTNV-1">
          <mxGeometry x="340" y="740" width="110" height="50" as="geometry" />
        </mxCell>
        <mxCell id="2iyoucYUnTLYOsf95gTa-2" value="ReportBug" style="rounded=1;whiteSpace=wrap;html=1;" vertex="1" parent="WIyWlLk6GJQsqaUBKTNV-1">
          <mxGeometry x="470" y="620" width="110" height="50" as="geometry" />
        </mxCell>
        <mxCell id="2iyoucYUnTLYOsf95gTa-3" value="LogDownloader" style="rounded=1;whiteSpace=wrap;html=1;" vertex="1" parent="WIyWlLk6GJQsqaUBKTNV-1">
          <mxGeometry x="210" y="740" width="110" height="50" as="geometry" />
        </mxCell>
        <mxCell id="2iyoucYUnTLYOsf95gTa-4" value="ZipUtils" style="rounded=1;whiteSpace=wrap;html=1;" vertex="1" parent="WIyWlLk6GJQsqaUBKTNV-1">
          <mxGeometry x="340" y="620" width="110" height="50" as="geometry" />
        </mxCell>
        <mxCell id="2iyoucYUnTLYOsf95gTa-5" value="LogZipManager" style="rounded=1;whiteSpace=wrap;html=1;" vertex="1" parent="WIyWlLk6GJQsqaUBKTNV-1">
          <mxGeometry x="210" y="620" width="110" height="50" as="geometry" />
        </mxCell>
        <mxCell id="2iyoucYUnTLYOsf95gTa-6" value="TraceConverter" style="rounded=1;whiteSpace=wrap;html=1;" vertex="1" parent="WIyWlLk6GJQsqaUBKTNV-1">
          <mxGeometry x="340" y="680" width="110" height="50" as="geometry" />
        </mxCell>
        <mxCell id="2iyoucYUnTLYOsf95gTa-8" value="LogManager" style="rounded=1;whiteSpace=wrap;html=1;" vertex="1" parent="WIyWlLk6GJQsqaUBKTNV-1">
          <mxGeometry x="470" y="680" width="110" height="50" as="geometry" />
        </mxCell>
        <mxCell id="2iyoucYUnTLYOsf95gTa-9" value="TraceManager" style="rounded=1;whiteSpace=wrap;html=1;" vertex="1" parent="WIyWlLk6GJQsqaUBKTNV-1">
          <mxGeometry x="470" y="740" width="110" height="50" as="geometry" />
        </mxCell>
        <mxCell id="2iyoucYUnTLYOsf95gTa-10" value="公&lt;br&gt;共&lt;br&gt;模&lt;br&gt;块&lt;br&gt;(jar)" style="text;strokeColor=none;fillColor=none;html=1;fontSize=24;fontStyle=1;verticalAlign=middle;align=center;" vertex="1" parent="WIyWlLk6GJQsqaUBKTNV-1">
          <mxGeometry x="140" y="666" width="60" height="80" as="geometry" />
        </mxCell>
        <mxCell id="2iyoucYUnTLYOsf95gTa-11" value="" style="rounded=1;whiteSpace=wrap;html=1;" vertex="1" parent="WIyWlLk6GJQsqaUBKTNV-1">
          <mxGeometry x="130" y="360" width="460" height="240" as="geometry" />
        </mxCell>
        <mxCell id="2iyoucYUnTLYOsf95gTa-12" value="Analyzer" style="rounded=1;whiteSpace=wrap;html=1;" vertex="1" parent="WIyWlLk6GJQsqaUBKTNV-1">
          <mxGeometry x="250" y="540" width="110" height="50" as="geometry" />
        </mxCell>
        <mxCell id="2iyoucYUnTLYOsf95gTa-13" value="SceneManager" style="rounded=1;whiteSpace=wrap;html=1;" vertex="1" parent="WIyWlLk6GJQsqaUBKTNV-1">
          <mxGeometry x="400" y="540" width="110" height="50" as="geometry" />
        </mxCell>
        <mxCell id="2iyoucYUnTLYOsf95gTa-14" value="输入卡顿" style="rounded=1;whiteSpace=wrap;html=1;" vertex="1" parent="WIyWlLk6GJQsqaUBKTNV-1">
          <mxGeometry x="210" y="483" width="110" height="50" as="geometry" />
        </mxCell>
        <mxCell id="2iyoucYUnTLYOsf95gTa-15" value="场&lt;br&gt;景&lt;br&gt;开&lt;br&gt;发&lt;br&gt;模&lt;br&gt;块&lt;br&gt;(工程)" style="text;strokeColor=none;fillColor=none;html=1;fontSize=24;fontStyle=1;verticalAlign=middle;align=center;" vertex="1" parent="WIyWlLk6GJQsqaUBKTNV-1">
          <mxGeometry x="140" y="443" width="60" height="80" as="geometry" />
        </mxCell>
        <mxCell id="2iyoucYUnTLYOsf95gTa-16" value="一般场景卡顿" style="rounded=1;whiteSpace=wrap;html=1;" vertex="1" parent="WIyWlLk6GJQsqaUBKTNV-1">
          <mxGeometry x="340" y="483" width="110" height="50" as="geometry" />
        </mxCell>
        <mxCell id="2iyoucYUnTLYOsf95gTa-17" value="............" style="rounded=1;whiteSpace=wrap;html=1;" vertex="1" parent="WIyWlLk6GJQsqaUBKTNV-1">
          <mxGeometry x="470" y="483" width="110" height="50" as="geometry" />
        </mxCell>
        <mxCell id="2iyoucYUnTLYOsf95gTa-18" value="应用启动" style="rounded=1;whiteSpace=wrap;html=1;" vertex="1" parent="WIyWlLk6GJQsqaUBKTNV-1">
          <mxGeometry x="210" y="424" width="110" height="50" as="geometry" />
        </mxCell>
        <mxCell id="2iyoucYUnTLYOsf95gTa-19" value="微信场景" style="rounded=1;whiteSpace=wrap;html=1;" vertex="1" parent="WIyWlLk6GJQsqaUBKTNV-1">
          <mxGeometry x="340" y="424" width="110" height="50" as="geometry" />
        </mxCell>
        <mxCell id="2iyoucYUnTLYOsf95gTa-21" value="应用进退出动效" style="rounded=1;whiteSpace=wrap;html=1;" vertex="1" parent="WIyWlLk6GJQsqaUBKTNV-1">
          <mxGeometry x="210" y="369" width="110" height="50" as="geometry" />
        </mxCell>
        <mxCell id="2iyoucYUnTLYOsf95gTa-22" value="列表滑动" style="rounded=1;whiteSpace=wrap;html=1;" vertex="1" parent="WIyWlLk6GJQsqaUBKTNV-1">
          <mxGeometry x="340" y="369" width="110" height="50" as="geometry" />
        </mxCell>
        <mxCell id="2iyoucYUnTLYOsf95gTa-23" value="王者荣耀" style="rounded=1;whiteSpace=wrap;html=1;" vertex="1" parent="WIyWlLk6GJQsqaUBKTNV-1">
          <mxGeometry x="470" y="369" width="110" height="50" as="geometry" />
        </mxCell>
        <mxCell id="2iyoucYUnTLYOsf95gTa-24" value="和平精英" style="rounded=1;whiteSpace=wrap;html=1;" vertex="1" parent="WIyWlLk6GJQsqaUBKTNV-1">
          <mxGeometry x="470" y="424" width="110" height="50" as="geometry" />
        </mxCell>
      </root>
    </mxGraphModel>
  </diagram>
</mxfile>
